<?xml version="1.0" encoding="utf-8"?>
<!-- Generator: Adobe Illustrator 21.0.2, SVG Export Plug-In . SVG Version: 6.00 Build 0)  -->
<svg version="1.1" id="Ebene_1" xmlns="http://www.w3.org/2000/svg" xmlns:xlink="http://www.w3.org/1999/xlink" x="0px" y="0px"
	 viewBox="0 0 17 17" style="enable-background:new 0 0 17 17;" xml:space="preserve">
<style type="text/css">
	.st0{fill:none;stroke:#FFFFFF;stroke-width:2.0166;stroke-linecap:round;stroke-linejoin:round;stroke-miterlimit:10;}
	.st1{fill:none;stroke:#9C9FA3;stroke-width:2.0166;stroke-miterlimit:10;}
	.st2{fill:none;stroke:#FFFFFF;stroke-width:2.2562;stroke-linecap:round;stroke-miterlimit:10;}
	.st3{fill:#FFFFFF;}
</style>
<g>
	<path class="st3" d="M8.4,12.7L13,8.1c0,0,0,0,0,0l2.8-2.8c0.2-0.2,0.3-0.4,0.3-0.7S16.1,4,15.9,3.8l-3.4-3.4c-0.4-0.4-1-0.4-1.4,0
		L8.3,3.3L2.1,9.5C2,9.6,1.9,9.7,1.8,9.9l-1.3,4.7c-0.1,0.3,0,0.7,0.2,1c0.2,0.2,0.5,0.3,0.7,0.3c0.1,0,0.1,0,0.2,0l3.1-0.7
		C5.4,15,5.7,14.5,5.6,14c-0.1-0.5-0.7-0.9-1.2-0.8l-1.5,0.3l0.8-2.8L9,5.4l1.9,1.9L7,11.3c-0.4,0.4-0.4,1,0,1.4
		C7.4,13.1,8,13.1,8.4,12.7z M10.4,4l1.4-1.4l1.9,1.9l-1.4,1.4L10.4,4z"/>
	<path class="st3" d="M15.5,14.7H8.2c-0.6,0-1.1,0.5-1.1,1.1s0.5,1.1,1.1,1.1h7.3c0.6,0,1.1-0.5,1.1-1.1S16.2,14.7,15.5,14.7z"/>
</g>
</svg>
